<?xml version="1.0" encoding="utf-8"?>
<!-- Generator: Adobe Illustrator 25.2.0, SVG Export Plug-In . SVG Version: 6.00 Build 0)  -->
<svg version="1.1" id="Camada_1" xmlns="http://www.w3.org/2000/svg" xmlns:xlink="http://www.w3.org/1999/xlink" x="0px" y="0px"
	 viewBox="0 0 888.6 1182.3" style="enable-background:new 0 0 888.6 1182.3;" xml:space="preserve">
<style type="text/css">
	.st0{fill:url(#SVGID_1_);}
	.st1{fill:url(#SVGID_2_);}
	.st2{fill:url(#SVGID_3_);}
	.st3{fill:#8E7923;}
	.st4{enable-background:new    ;}
</style>
<linearGradient id="SVGID_1_" gradientUnits="userSpaceOnUse" x1="140.25" y1="1742.5565" x2="645.785" y2="1742.5565" gradientTransform="matrix(1 0 0 -1 47 2311.8799)">
	<stop  offset="0" style="stop-color:#B28128"/>
	<stop  offset="0.11" style="stop-color:#C69C43"/>
	<stop  offset="0.21" style="stop-color:#D1AD54"/>
	<stop  offset="0.47" style="stop-color:#F5E071"/>
	<stop  offset="0.67" style="stop-color:#EEC173"/>
	<stop  offset="0.8" style="stop-color:#C59138"/>
	<stop  offset="0.92" style="stop-color:#B28128"/>
</linearGradient>
<path class="st0" d="M230.6,981.5h-43.4V369.8c29.4-135.7,154.3-225.3,280.4-211.2c107.4,12,198.8,97.4,221.9,211.2
	c2.6,14.6,18.5,114.7-52.3,201.6c-72.1,88.6-176,92-190.5,92.3c-59.3,0.9-116.9-19.4-162.6-57.2c3-13.3,6-26.6,9.1-39.9
	c40.6,40.6,96.2,62.6,153.5,60.8c17.1-0.2,85.3-3.2,142.5-56.5c71.8-67,67.5-158.6,66.7-171.2c-2.4-20.5-12.9-89.4-71.5-145.1
	c-16-15.2-62.6-58.2-134.9-62c-79.4-4.2-135.6,41.8-157.9,63.6c-43.9,43.1-57.8,92.9-62.4,114.1C229.7,574,230.1,777.8,230.6,981.5z
	"/>
<linearGradient id="SVGID_2_" gradientUnits="userSpaceOnUse" x1="609.95" y1="1819.34" x2="840.7" y2="1819.34" gradientTransform="matrix(1 0 0 -1 47 2311.8799)">
	<stop  offset="0" style="stop-color:#B28128"/>
	<stop  offset="0.11" style="stop-color:#C69C43"/>
	<stop  offset="0.21" style="stop-color:#D1AD54"/>
	<stop  offset="0.47" style="stop-color:#F5E071"/>
	<stop  offset="0.67" style="stop-color:#EEC173"/>
	<stop  offset="0.8" style="stop-color:#C59138"/>
	<stop  offset="0.92" style="stop-color:#B28128"/>
</linearGradient>
<polygon class="st1" points="657,170.7 657,3.5 887.7,3.5 887.7,981.5 657,981.5 657,653.5 692.8,613 692.8,943.7 851.4,943.7 
	851.4,39.8 692.8,39.8 692.8,206.9 "/>
<g id="Camada_2_1_">
	
		<linearGradient id="SVGID_3_" gradientUnits="userSpaceOnUse" x1="-46.06" y1="1820.85" x2="183.63" y2="1820.85" gradientTransform="matrix(1 0 0 -1 47 2311.8799)">
		<stop  offset="0" style="stop-color:#B28128"/>
		<stop  offset="0.11" style="stop-color:#C69C43"/>
		<stop  offset="0.21" style="stop-color:#D1AD54"/>
		<stop  offset="0.47" style="stop-color:#F5E071"/>
		<stop  offset="0.67" style="stop-color:#EEC173"/>
		<stop  offset="0.8" style="stop-color:#C59138"/>
		<stop  offset="0.92" style="stop-color:#B28128"/>
	</linearGradient>
	<polygon class="st2" points="0.9,0 0.9,982.1 148.9,982.1 148.9,943 40,943 40,37.7 191.5,37.7 191.5,208.4 230.6,169.2 230.6,0 	
		"/>
</g>
<path class="st3" d="M111.6,1087l-11.6,18.5l-2-1.4c0.7-1,1.2-2.2,1.4-3.4c0-1.6-2.7-3.8-8.1-6.6c-9.8-5.5-20.8-8.4-31.9-8.4
	c-12.7,0-23.3,3.6-32,10.7c-9.9,8.1-14.9,19-14.9,32.7c0,13.4,4.7,24,14.2,31.9c8.7,7.3,19.9,11,33.5,11c7,0,13.9-1.1,20.5-3.4
	c6-2,11.6-5.2,16.4-9.4V1140H72.5c-1.6-0.1-3.1,0.2-4.5,1c-1.1,1-1.8,2.4-2,3.9h-2.4v-19.5H66c0.2,1.5,0.9,2.8,2,3.9
	c0.9,0.7,2.4,1,4.5,1h40.7v2.4c-1.5,0.2-2.8,0.9-3.9,2c-0.7,0.9-1,2.4-1,4.5v13.4c0,2.1,0.3,3.6,1,4.5c1,1.1,2.4,1.8,3.9,2v2.1
	c-4.9,4.5-10.3,8.5-16.1,11.9c-10.9,6.2-23.4,9.2-37.5,9.2c-17.3,0-31.2-4.7-41.9-14c-5.2-4.6-9.5-10.2-12.5-16.5
	c-3.5-7.2-5.3-15.2-5.2-23.2c-0.1-11.2,3.4-22.1,10.2-31.1c6.5-8.5,15.3-14.8,25.4-18.2c7.8-2.7,16-4.1,24.2-4
	c7.1-0.1,14.2,0.9,21,2.7c7.3,2.2,14.3,5.2,20.9,9c2.2,1.2,3.5,1.8,4,1.8c0.8,0,2-1.1,3.7-3.2L111.6,1087z"/>
<path class="st3" d="M149.6,1133.9v37.6c-0.1,1.5,0.2,3.1,1,4.4c1,1.1,2.4,1.8,3.9,2.1v2.4h-21.6v-2.4c1.5-0.2,2.8-0.9,3.9-2
	c0.7-0.9,1-2.3,1-4.5V1086c0-2.1-0.3-3.6-1-4.5c-1-1.1-2.4-1.8-3.9-2v-2.4h56.7c6.2-0.1,12.3,0.3,18.5,1.2c4.2,0.7,8.2,2.2,11.8,4.4
	c3.5,2.2,6.3,5.2,8.3,8.7c2.5,4.3,3.7,9.2,3.6,14.2c0,7.9-2.6,14.3-7.8,19.3c-5.2,5-12.4,7.8-21.5,8.5l26.3,40.8
	c1.4,2.4,4,3.9,6.8,3.8v2.4h-23.9v-2.4c2.5-0.4,3.7-1.1,3.7-2.1c0-0.5-0.9-2.1-2.7-4.9l-23.5-37L149.6,1133.9L149.6,1133.9z
	 M149.6,1124.1h41.9c4.3,0.1,8.6-0.2,12.9-0.7c2.7-0.4,5.3-1.3,7.7-2.6c5.2-3,7.8-8.1,7.8-15.2s-2.7-12.2-8-15.3
	c-2.5-1.3-5.1-2.2-7.9-2.7c-4.5-0.5-9-0.8-13.5-0.7h-40.8V1124.1z"/>
<path class="st3" d="M266.3,1086v57.2c0,6.8,0.4,11.5,1.1,14.3c0.7,2.8,2.3,5.3,4.4,7.2c5.4,4.8,15.5,7.3,30.2,7.3
	c16.1,0,26.6-2.8,31.6-8.6c1.7-2,2.8-4.3,3.3-6.9c0.7-4.4,1-8.8,0.8-13.3V1086c0.1-1.5-0.2-3.1-1-4.4c-1-1.1-2.4-1.8-3.9-2.1v-2.4
	h20.5v2.4c-1.5,0.2-2.8,0.9-3.9,2c-0.7,0.9-1,2.4-1,4.5v59.5c0,7.3-0.7,12.9-2.1,16.7c-2.6,6.9-7.6,11.9-14.8,15.2
	c-7.2,3.2-17.3,4.8-30.1,4.8c-19.2,0-32.3-3.7-39.4-11.1c-2.8-2.9-4.9-6.3-6-10.2c-1.1-3.8-1.7-8.9-1.7-15.4V1086
	c0.1-1.6-0.2-3.1-1-4.5c-1-1.1-2.4-1.8-3.9-2v-2.4h21.6v2.4c-1.5,0.3-2.8,1-3.9,2.1C266.5,1082.9,266.2,1084.5,266.3,1086z"/>
<path class="st3" d="M390.9,1133.9v38.6c-0.1,1.3,0.3,2.5,1,3.6c1,1,2.4,1.7,3.8,2v2.4h-21.6v-2.4c1.4-0.3,2.7-1,3.8-2
	c0.8-1,1.1-2.3,1-3.6v-87.6c0.1-1.2-0.3-2.5-1-3.5c-1-1-2.4-1.7-3.8-2v-2.4h54.4c6-0.1,11.9,0.3,17.8,1.2c4,0.7,7.9,2.2,11.4,4.4
	c3.5,2.1,6.4,5.1,8.4,8.7c2.4,4.2,3.6,9.1,3.6,13.9c0.1,6.7-2.2,13.1-6.5,18.2c-3.3,3.9-7.8,6.7-12.7,8.1
	c-5.1,1.5-12.4,2.3-21.9,2.3L390.9,1133.9L390.9,1133.9z M390.9,1124.1h38.8c4.3,0.1,8.6-0.1,12.8-0.7c2.7-0.4,5.2-1.3,7.5-2.7
	c5.2-3,7.7-8.1,7.7-15.2s-2.6-12.2-7.7-15.3c-2.3-1.3-4.9-2.2-7.5-2.7c-4.3-0.5-8.6-0.8-12.9-0.7h-38.8V1124.1L390.9,1124.1z"/>
<path class="st3" d="M545.2,1075.2c18.2,0,32.9,4.8,44.1,14.3c6.2,5.2,11,11.9,14,19.5c2.6,6.5,3.9,13.4,3.9,20.4
	c0,9.8-2.9,19.5-8.4,27.6c-6.1,9.4-15.1,16.7-25.7,20.5c-8.9,3.3-18.3,4.8-27.8,4.7c-18.1,0-32.7-4.8-43.8-14.3
	c-19.6-17-23.7-45.8-9.6-67.6c6.1-9.3,14.6-16.2,25.8-20.4C525.4,1077,534.6,1075.4,545.2,1075.2z M545.2,1085.6
	c-15.5,0-27.8,4.3-36.8,13c-8.3,8-12.4,18-12.4,30.1s4.1,22.1,12.4,30.1c9,8.7,21.3,13,37,13c15.7,0,28.1-4.3,37.1-13
	c8.1-7.7,12.6-18.4,12.3-29.5c0-12.7-4.1-22.9-12.3-30.7c-4.5-4.4-9.9-7.7-15.9-9.8C559.7,1086.6,552.5,1085.6,545.2,1085.6
	L545.2,1085.6z"/>
<path class="st3" d="M753.7,1132.2h-70.8v39.3c0,2.1,0.3,3.6,0.9,4.5s1.9,1.5,3.9,2v2.4h-21.6v-2.4c2-0.5,3.3-1.2,3.9-2
	s0.9-2.3,0.9-4.5V1086c0-2.1-0.3-3.6-1-4.5c-1-1.1-2.4-1.8-3.9-2v-2.4h21.6v2.4c-1.5,0.2-2.8,0.9-3.9,2c-0.7,0.9-1,2.3-1,4.5v36.3
	h70.8V1086c0.1-1.6-0.2-3.1-1-4.5c-1-1.1-2.4-1.8-3.9-2v-2.4h21.6v2.4c-1.5,0.2-2.8,0.9-3.9,2c-0.7,0.9-1,2.3-1,4.5v85.5
	c-0.1,1.5,0.2,3.1,1,4.4c1,1.1,2.4,1.8,3.9,2.1v2.4h-21.5v-2.4c1.5-0.2,2.8-0.9,3.9-2c0.7-0.9,1-2.3,1-4.5L753.7,1132.2
	L753.7,1132.2z"/>
<path class="st3" d="M809.9,1133.9v38.6c-0.1,1.3,0.3,2.5,1,3.6c1,1,2.4,1.7,3.8,2v2.4h-21.6v-2.4c1.4-0.3,2.7-1,3.8-2
	c0.8-1,1.1-2.3,1-3.6v-87.6c0.1-1.2-0.3-2.5-1-3.5c-1-1-2.4-1.7-3.8-2v-2.4h54.4c6-0.1,11.9,0.3,17.8,1.2c4,0.7,7.9,2.2,11.4,4.4
	c3.5,2.1,6.4,5.1,8.4,8.7c2.4,4.2,3.6,9.1,3.6,13.9c0.1,6.7-2.2,13.1-6.5,18.2c-3.3,3.9-7.8,6.7-12.7,8.1
	c-5.1,1.5-12.4,2.3-21.9,2.3L809.9,1133.9L809.9,1133.9z M809.9,1124.1h38.8c4.3,0.1,8.6-0.1,12.8-0.7c2.7-0.4,5.2-1.3,7.5-2.7
	c5.2-3,7.7-8.1,7.7-15.2c0-7.1-2.6-12.2-7.7-15.3c-2.3-1.3-4.9-2.2-7.5-2.7c-4.3-0.5-8.6-0.8-12.9-0.7h-38.8V1124.1L809.9,1124.1z"
	/>
<g class="st4">
	<path class="st3" d="M716.6,1008.8c7.8,0,14,2.1,18.6,6.3c4.8,4.4,7.3,10.1,7.3,17.1c0,4.3-1.2,8.3-3.5,12
		c-4.5,7.3-12,10.9-22.3,10.9c-7.8,0-13.9-2.1-18.5-6.3c-2.5-2.3-4.3-5-5.6-8.1c-1.1-2.8-1.7-5.7-1.7-8.8c0-4.5,1.2-8.6,3.5-12.3
		C698.8,1012.5,706.2,1008.9,716.6,1008.8z M716.7,1016.4c-4.3,0-7.8,1.3-10.7,3.8c-3.4,3-5.1,6.9-5.1,11.8s1.7,8.8,5.1,11.8
		c2.8,2.5,6.4,3.8,10.8,3.8c4.3,0,7.9-1.3,10.7-3.8c1.7-1.5,3-3.4,3.9-5.5c0.8-1.9,1.2-4,1.2-6c0-5.1-1.7-9.1-5.1-12
		C724.6,1017.7,721,1016.4,716.7,1016.4z"/>
	<path class="st3" d="M760.6,1023.7v27.3c0,0.7,0.2,1.2,0.5,1.5c0.3,0.4,0.9,0.6,1.6,0.9v1.1h-13.2v-1.1c0.8-0.2,1.3-0.5,1.6-0.9
		c0.3-0.3,0.5-0.9,0.5-1.5v-38c0-0.7-0.2-1.2-0.5-1.5c-0.3-0.4-0.9-0.6-1.6-0.9v-1.1h15.2v1.1c-0.9,0.2-1.4,0.7-1.4,1.5
		c0,0.5,0.3,1.1,0.9,1.7l24.7,25.7V1013c0-0.7-0.2-1.2-0.5-1.5c-0.3-0.4-0.9-0.6-1.6-0.9v-1.1h13.2v1.1c-0.8,0.2-1.3,0.5-1.6,0.9
		c-0.3,0.3-0.5,0.9-0.5,1.5v38c0,0.7,0.2,1.2,0.5,1.5c0.3,0.4,0.9,0.6,1.6,0.9v1.1h-14.1v-1.1c0.9-0.2,1.4-0.7,1.4-1.4
		c0-0.4-0.5-1.2-1.6-2.3L760.6,1023.7z"/>
	<path class="st3" d="M820,1034.7v12.3h28.8c0.7,0,1.2-0.2,1.5-0.5c0.3-0.3,0.6-0.9,0.9-1.6h1.1v11.6h-1.1c-0.2-0.8-0.5-1.3-0.9-1.6
		c-0.4-0.3-0.9-0.5-1.5-0.5h-40.7v-1.1c0.8-0.2,1.3-0.5,1.6-0.9c0.3-0.3,0.5-0.9,0.5-1.5V1013c0-0.7-0.2-1.2-0.5-1.5
		c-0.3-0.4-0.9-0.6-1.6-0.9v-1.1h39.9c0.7,0,1.2-0.2,1.5-0.5c0.3-0.3,0.6-0.9,0.9-1.6h1.1v11.6h-1.1c-0.2-0.8-0.5-1.3-0.9-1.6
		c-0.4-0.3-0.9-0.5-1.5-0.5h-28v10.6h18.2c0.7,0,1.2-0.2,1.5-0.5c0.3-0.3,0.6-0.9,0.9-1.6h1.1v11.3h-1.1c-0.2-0.8-0.5-1.3-0.9-1.6
		c-0.4-0.3-0.9-0.5-1.5-0.5H820z"/>
</g>
</svg>
